<svg width="24" height="24" viewBox="0 0 24 24" fill="none" xmlns="http://www.w3.org/2000/svg">
<g clip-path="url(#clip0_321_55)">
<path d="M2.07448 1.58691L20.496 20.0084C20.8455 20.358 21.0419 20.8321 21.0419 21.3264C21.0419 21.8208 20.8455 22.2949 20.496 22.6444V22.6444C20.1463 22.9938 19.6723 23.1901 19.178 23.1901C18.6837 23.1901 18.2096 22.9938 17.86 22.6444L13.36 18.0669C13.0655 17.7679 12.9003 17.3651 12.9 16.9454V16.6689C12.9 16.457 12.858 16.2472 12.7762 16.0517C12.6945 15.8561 12.5748 15.6788 12.424 15.5299L11.843 14.9934C11.6457 14.8114 11.4059 14.682 11.1455 14.617C10.8851 14.552 10.6126 14.5535 10.353 14.6214V14.6214C9.94356 14.7283 9.51332 14.7262 9.10495 14.6154C8.69658 14.5047 8.32427 14.289 8.02497 13.9899L3.75348 9.71791C1.21948 7.18391 0.286975 3.35741 2.07448 1.58691Z" stroke="#E67E22" stroke-linejoin="round"/>
<path d="M19.2 0.800049L15.3375 4.66255C15.0403 4.95971 14.8045 5.31251 14.6436 5.7008C14.4828 6.08908 14.4 6.50526 14.4 6.92555V7.66855C14.4 7.77367 14.3793 7.87777 14.3391 7.97489C14.2988 8.072 14.2398 8.16024 14.1655 8.23455L13.6 8.80005M15.2 10.4L15.7655 9.83455C15.8398 9.76019 15.928 9.70121 16.0252 9.66097C16.1223 9.62073 16.2264 9.60003 16.3315 9.60005H17.0745C17.4948 9.60005 17.911 9.51726 18.2992 9.3564C18.6875 9.19554 19.0403 8.95977 19.3375 8.66255L23.2 4.80005M21.2 2.80005L17.2 6.80005M9.19999 17.6L4.21399 22.614C3.83893 22.989 3.33032 23.1996 2.79999 23.1996C2.26966 23.1996 1.76104 22.989 1.38599 22.614V22.614C1.01105 22.239 0.800415 21.7304 0.800415 21.2C0.800415 20.6697 1.01105 20.1611 1.38599 19.786L5.59999 15.6" stroke="#E67E22" stroke-linecap="round" stroke-linejoin="round"/>
</g>
<defs>
<clipPath id="clip0_321_55">
<rect width="24" height="24" fill="white"/>
</clipPath>
</defs>
</svg>
