<svg width="64" height="64" viewBox="0 0 64 64" fill="none" xmlns="http://www.w3.org/2000/svg">
<rect width="64" height="64" rx="32" fill="#FDF2E9"/>
<path d="M38 24.0001C35.9838 23.8194 34 25.0001 32 25.0001C30 25.0001 28.0156 23.8126 26 24.0001C22 24.3751 20 28.0001 20 34.0001C20 39.0001 24 46.0001 26.95 46.0001C29.9 46.0001 30.1962 44.5001 32 44.5001C33.8038 44.5001 34.0994 46.0001 37.05 46.0001C40.0006 46.0001 44 39.0001 44 34.0001C44 28.0001 42.1875 24.3751 38 24.0001Z" stroke="#E67E22" stroke-width="2" stroke-miterlimit="10"/>
<path d="M36.245 21.1961C34.9325 22.5086 33.3913 22.8836 32.5688 22.9955C32.4936 23.0063 32.4169 22.9999 32.3445 22.9766C32.2722 22.9534 32.2061 22.914 32.1513 22.8614C32.0965 22.8088 32.0543 22.7444 32.0281 22.6731C32.0019 22.6018 31.9923 22.5254 32 22.4498C32.1483 21.0439 32.7804 19.7332 33.7881 18.7417C35.1631 17.3667 36.6631 17.0605 37.4581 17.0011C37.5323 16.9943 37.6071 17.0042 37.677 17.0301C37.7469 17.0559 37.8102 17.0971 37.8621 17.1505C37.914 17.204 37.9534 17.2683 37.9772 17.339C38.0011 17.4096 38.0089 17.4846 38 17.5586C37.8431 18.9346 37.2244 20.2169 36.245 21.1961Z" fill="#E67E22"/>
<path d="M29.5 38C30.3284 38 31 36.6569 31 35C31 33.3431 30.3284 32 29.5 32C28.6716 32 28 33.3431 28 35C28 36.6569 28.6716 38 29.5 38Z" fill="#E67E22"/>
<path d="M34.5 38C35.3284 38 36 36.6569 36 35C36 33.3431 35.3284 32 34.5 32C33.6716 32 33 33.3431 33 35C33 36.6569 33.6716 38 34.5 38Z" fill="#E67E22"/>
</svg>
